<svg id="Component_37_1" data-name="Component 37 – 1" xmlns="http://www.w3.org/2000/svg" width="53" height="36" viewBox="0 0 53 36">
  <g id="Ellipse_35" data-name="Ellipse 35" fill="none" stroke="#707070" stroke-width="4">
    <circle cx="18" cy="18" r="18" stroke="none"/>
    <circle cx="18" cy="18" r="16" fill="none"/>
  </g>
  <g id="Path_289" data-name="Path 289" transform="translate(17)" fill="none">
    <path d="M18,0A18,18,0,1,1,0,18,18,18,0,0,1,18,0Z" stroke="none"/>
    <path d="M 18 4 C 14.26046943664551 4 10.74476051330566 5.456249237060547 8.100509643554688 8.100509643554688 C 5.456249237060547 10.74476051330566 4 14.26046943664551 4 18 C 4 21.73954010009766 5.456249237060547 25.2552490234375 8.100509643554688 27.89949989318848 C 10.74476051330566 30.54375076293945 14.26046943664551 32 18 32 C 20.08348083496094 32 22.08937072753906 31.55808067321777 23.96195983886719 30.68651008605957 C 25.71762084960938 29.86935997009277 27.28223991394043 28.69014930725098 28.48884010314941 27.27384948730469 C 30.78586006164551 24.58211135864258 32 21.37525939941406 32 18 C 32 14.26046943664551 30.54375076293945 10.74476051330566 27.89949989318848 8.100509643554688 C 25.2552490234375 5.456249237060547 21.73954010009766 4 18 4 M 18 0 C 27.94112968444824 0 36 8.058879852294922 36 18 C 36 22.45359992980957 34.382568359375 26.5294303894043 31.53154945373535 29.87036895751953 C 28.40151977539063 33.54441070556641 23.48752021789551 36 18 36 C 8.058879852294922 36 0 27.94112968444824 0 18 C 0 8.058879852294922 8.058879852294922 0 18 0 Z" stroke="none" fill="#707070"/>
  </g>
</svg>
