<svg xmlns="http://www.w3.org/2000/svg" xmlns:xlink="http://www.w3.org/1999/xlink" width="142" height="70" viewBox="0 0 142 70"><defs><style>.a{fill:#707070;}.b{fill:url(#a);}.c{fill:url(#d);}.d{fill:url(#e);}.e{fill:#ffa74f;}.f{fill:url(#j);}.g{filter:url(#h);}.h{filter:url(#f);}.i{filter:url(#b);}</style><linearGradient id="a" y1="0.5" x2="1" y2="0.5" gradientUnits="objectBoundingBox"><stop offset="0" stop-color="#ffa74f"/><stop offset="0" stop-color="#ccb657"/><stop offset="0.586" stop-color="#a0c35e"/><stop offset="1" stop-color="#94c760"/></linearGradient><filter id="b" x="62" y="21.999" width="74" height="29.001" filterUnits="userSpaceOnUse"><feOffset dy="1" input="SourceAlpha"/><feGaussianBlur stdDeviation="3" result="c"/><feFlood/><feComposite operator="in" in2="c"/><feComposite in="SourceGraphic"/></filter><linearGradient id="d" y1="0.5" x2="1" y2="0.5" gradientUnits="objectBoundingBox"><stop offset="0" stop-color="#94c760"/><stop offset="1" stop-color="#fff"/></linearGradient><linearGradient id="e" x1="1" y1="0.5" x2="0" y2="0.5" gradientUnits="objectBoundingBox"><stop offset="0" stop-color="#ffa74f"/><stop offset="0.156" stop-color="#fea450"/><stop offset="1" stop-color="#f06266"/></linearGradient><filter id="f" x="6" y="22" width="74" height="29" filterUnits="userSpaceOnUse"><feOffset dy="1" input="SourceAlpha"/><feGaussianBlur stdDeviation="3" result="g"/><feFlood/><feComposite operator="in" in2="g"/><feComposite in="SourceGraphic"/></filter><filter id="h" x="39" y="4" width="63" height="63" filterUnits="userSpaceOnUse"><feOffset input="SourceAlpha"/><feGaussianBlur stdDeviation="4" result="i"/><feFlood/><feComposite operator="in" in2="i"/><feComposite in="SourceGraphic"/></filter><linearGradient id="j" y1="0.5" x2="1" y2="0.5" gradientUnits="objectBoundingBox"><stop offset="0" stop-color="#f06266"/><stop offset="1" stop-color="#fff"/></linearGradient></defs><g transform="translate(-370 -854)"><g transform="translate(-945 260)"><circle class="a" cx="35" cy="35" r="35" transform="translate(1330 594)"/><ellipse class="a" cx="35.5" cy="35" rx="35.5" ry="35" transform="translate(1371 594)"/></g><g class="i" transform="matrix(1, 0, 0, 1, 370, 854)"><path class="b" d="M-9176-1914v-11h56v11Z" transform="translate(9247 1955)"/></g><path class="c" d="M-9176-1914v-11h15v11Z" transform="translate(9673 2809)"/><g class="h" transform="matrix(1, 0, 0, 1, 370, 854)"><rect class="d" width="56" height="11" transform="translate(15 30)"/></g><g class="g" transform="matrix(1, 0, 0, 1, 370, 854)"><circle class="e" cx="19.5" cy="19.5" r="19.5" transform="translate(51 16)"/></g><path class="f" d="M-9176-1914v-11h15v11Z" transform="translate(-8791 -1030.001) rotate(-180)"/></g></svg>