<svg xmlns="http://www.w3.org/2000/svg" width="38.975" height="37.109" viewBox="0 0 38.975 37.109">
  <g id="Component_38_1" data-name="Component 38 – 1" transform="translate(3.487 3.456)">
    <g id="Polygon_13" data-name="Polygon 13" fill="none">
      <path d="M15.561.8a.5.5,0,0,1,.878,0l4.646,8.514a.5.5,0,0,0,.351.253l9.638,1.723a.5.5,0,0,1,.271.84L24.583,19.1a.5.5,0,0,0-.136.416l1.315,9.563a.5.5,0,0,1-.71.52l-8.838-4.2a.5.5,0,0,0-.429,0L6.947,29.6a.5.5,0,0,1-.71-.52L7.553,19.52a.5.5,0,0,0-.136-.416L.655,12.134a.5.5,0,0,1,.271-.84l9.638-1.723a.5.5,0,0,0,.351-.253Z" stroke="none"/>
      <path d="M 15.99999904632568 0.5437488555908203 C 15.82793426513672 0.5437488555908203 15.65586853027344 0.6305732727050781 15.56109809875488 0.8042240142822266 L 10.91486930847168 9.317943572998047 C 10.84224891662598 9.451013565063477 10.71317863464355 9.543943405151367 10.5639591217041 9.570623397827148 L 0.9256496429443359 11.29351425170898 C 0.5313282012939453 11.36400413513184 0.3758392333984375 11.84638404846191 0.6547698974609375 12.13387298583984 L 7.416549682617188 19.10353469848633 C 7.523639678955078 19.21392440795898 7.573978424072266 19.36746215820313 7.553018569946289 19.51983261108398 L 6.237558364868164 29.08325386047363 C 6.194108963012695 29.39908981323242 6.445837020874023 29.65229034423828 6.732481002807617 29.65229034423828 C 6.803274154663086 29.65229034423828 6.876243591308594 29.6368293762207 6.947368621826172 29.60305404663086 L 15.78551864624023 25.40610313415527 C 15.85337829589844 25.37387847900391 15.92668914794922 25.35776519775391 15.99999904632568 25.35776519775391 C 16.07330894470215 25.35776519775391 16.1466178894043 25.37387847900391 16.21447944641113 25.40610313415527 L 25.0526294708252 29.60305404663086 C 25.12377548217773 29.63683891296387 25.19670295715332 29.65229034423828 25.26751708984375 29.65229034423828 C 25.55413436889648 29.65229034423828 25.80588531494141 29.3990650177002 25.7624397277832 29.08325386047363 L 24.44697952270508 19.51983261108398 C 24.4260196685791 19.36746215820313 24.47635841369629 19.21392440795898 24.58344841003418 19.10353469848633 L 31.34522819519043 12.13387298583984 C 31.62415885925293 11.84637260437012 31.46866989135742 11.36400413513184 31.07434844970703 11.29351425170898 L 21.43605041503906 9.570623397827148 C 21.28681945800781 9.543943405151367 21.15774917602539 9.451013565063477 21.08512878417969 9.317943572998047 L 16.43889999389648 0.8042240142822266 C 16.3441276550293 0.6305732727050781 16.17206382751465 0.5437488555908203 15.99999904632568 0.5437488555908203 M 15.99999904632568 -3.456256866455078 C 17.64731979370117 -3.456256866455078 19.160888671875 -2.557987213134766 19.95003890991211 -1.111995697021484 L 23.79222297668457 5.928390502929688 L 31.7782096862793 7.355922698974609 C 33.41999816894531 7.649423599243164 34.75772094726563 8.817813873291016 35.26937103271484 10.40517425537109 C 35.7810173034668 11.99251365661621 35.37743759155273 13.72218322753906 34.21611785888672 14.9191837310791 L 28.6421012878418 20.66457366943359 L 29.72512817382813 28.53818321228027 C 29.90243911743164 29.82691383361816 29.51442909240723 31.12780380249023 28.66057968139648 32.10717391967773 C 27.80447959899902 33.08911514282227 26.56775856018066 33.65229415893555 25.26751899719238 33.65229415893555 C 24.60494995117188 33.65229415893555 23.93726921081543 33.50152206420898 23.3366584777832 33.21628189086914 L 15.99999618530273 29.73234748840332 L 8.663209915161133 33.21635437011719 C 8.062858581542969 33.50149536132813 7.395118713378906 33.65229415893555 6.732479095458984 33.65229415893555 C 5.432239532470703 33.65229415893555 4.195518493652344 33.08913421630859 3.33942985534668 32.10720443725586 C 2.485589981079102 31.12786293029785 2.097568511962891 29.82697296142578 2.274879455566406 28.53811264038086 L 3.357894897460938 20.6645679473877 L -2.216150283813477 14.91916370391846 C -3.377420425415039 13.72225379943848 -3.781030654907227 11.99257278442383 -3.269380569458008 10.40521430969238 C -2.757741928100586 8.817832946777344 -1.420011520385742 7.649423599243164 0.2217483520507813 7.355934143066406 L 8.207773208618164 5.928394317626953 L 12.04992866516113 -1.111946105957031 C 12.83910942077637 -2.557987213134766 14.3526782989502 -3.456256866455078 15.99999904632568 -3.456256866455078 Z" stroke="none" fill="#707070"/>
    </g>
  </g>
</svg>
