<?xml version="1.0" standalone="no"?>
<!DOCTYPE svg PUBLIC "-//W3C//DTD SVG 20010904//EN"
 "http://www.w3.org/TR/2001/REC-SVG-20010904/DTD/svg10.dtd">
<svg version="1.0" xmlns="http://www.w3.org/2000/svg"
 width="1136.000000pt" height="1136.000000pt" viewBox="0 0 1136.000000 1136.000000"
 preserveAspectRatio="xMidYMid meet">
<metadata>
Created by potrace 1.11, written by Peter Selinger 2001-2013
</metadata>
<g transform="translate(0.000000,1136.000000) scale(0.100000,-0.100000)"
fill="#000000" stroke="none">
<path d="M3798 8475 c-2 -1 -32 -6 -68 -9 -105 -11 -154 -16 -176 -21 -12 -3
-39 -7 -60 -11 -48 -8 -69 -12 -69 -14 0 -1 -9 -3 -20 -5 -11 -1 -40 -8 -65
-14 -25 -6 -55 -14 -68 -17 -121 -26 -379 -127 -552 -216 -136 -70 -322 -183
-328 -199 -2 -5 -8 -9 -14 -9 -5 0 -15 -6 -22 -12 -8 -7 -24 -20 -36 -28 -12
-8 -28 -20 -34 -25 -6 -6 -31 -26 -56 -45 -127 -99 -359 -337 -442 -455 -4 -5
-18 -23 -31 -40 -53 -68 -172 -252 -201 -310 -11 -22 -25 -43 -30 -47 -6 -4
-8 -8 -4 -8 4 0 -9 -27 -28 -61 -18 -33 -34 -64 -34 -68 0 -4 -10 -27 -22 -52
-19 -41 -107 -271 -112 -294 -8 -43 -40 -145 -45 -145 -3 0 -7 -12 -8 -27 -3
-49 -7 -73 -13 -73 -3 0 -6 -16 -7 -35 -1 -20 -7 -43 -15 -52 -11 -14 -11 -16
0 -9 11 7 12 4 4 -10 -5 -11 -9 -31 -8 -46 2 -27 -17 -44 -35 -32 -5 3 -9 0
-9 -7 0 -7 -8 -5 -22 7 -12 10 -18 13 -14 7 5 -10 -8 -12 -58 -9 -42 2 -63 -1
-59 -7 3 -6 1 -7 -6 -3 -13 9 -121 14 -116 6 2 -3 -17 -5 -41 -5 -24 0 -44 2
-44 5 0 6 -77 3 -95 -4 -6 -2 -17 -1 -24 4 -7 4 -27 4 -45 0 -17 -3 -42 -4
-56 0 -14 4 -34 4 -45 0 -11 -4 -32 -4 -47 1 -15 4 -30 4 -33 -1 -3 -4 -21 -4
-40 0 -19 4 -37 4 -40 0 -3 -4 -21 -4 -40 0 -19 4 -37 4 -40 0 -3 -4 -20 -4
-39 0 -19 4 -40 4 -46 0 -7 -4 -26 -4 -41 0 -16 5 -31 5 -34 0 -3 -4 -21 -4
-40 0 -19 4 -37 4 -40 0 -3 -4 -20 -4 -39 0 -19 4 -37 5 -40 2 -4 -3 -6 -203
-6 -445 0 -242 3 -438 6 -435 3 4 19 2 35 -2 16 -5 31 -5 34 0 3 4 20 4 39 0
19 -4 40 -4 46 0 7 4 26 4 41 0 16 -5 31 -5 34 0 3 4 20 4 39 0 19 -4 39 -4
46 0 7 4 27 4 46 0 19 -4 36 -4 39 0 3 5 18 5 33 2 15 -4 38 -6 52 -5 32 3 79
4 157 2 34 0 67 2 72 6 6 3 11 2 11 -2 0 -5 17 -7 38 -6 49 3 114 3 183 1 30
-1 61 2 67 6 7 4 12 3 12 -3 0 -5 8 -8 18 -6 9 1 23 -3 31 -9 11 -8 13 -8 8 0
-4 7 3 14 18 16 14 3 25 1 25 -3 0 -10 51 -6 69 5 6 4 11 3 11 -3 0 -5 -6 -12
-12 -14 -10 -4 -10 -6 -1 -6 6 -1 15 4 18 9 3 6 11 10 17 10 6 0 6 -6 -2 -15
-11 -13 -10 -14 6 -8 17 6 18 5 4 -12 -9 -11 -10 -16 -3 -11 7 4 13 3 13 -3 0
-5 -6 -12 -12 -14 -8 -3 -5 -6 5 -6 10 -1 16 -5 13 -9 -3 -5 3 -36 14 -70 10
-34 16 -63 14 -63 -2 -1 -8 -2 -13 -3 -21 -3 -20 -13 1 -12 18 1 23 -4 22 -21
-1 -13 2 -23 6 -23 4 0 7 -6 8 -12 5 -37 10 -57 25 -91 9 -21 16 -41 15 -45 0
-4 6 -24 15 -44 10 -21 17 -41 17 -46 0 -4 9 -27 20 -50 11 -22 20 -45 20 -50
0 -13 128 -269 158 -317 14 -22 31 -49 37 -60 13 -24 88 -138 95 -145 3 -3 14
-18 23 -33 21 -33 23 -35 120 -152 96 -115 237 -257 352 -351 50 -41 97 -81
106 -89 9 -8 19 -15 23 -15 4 0 14 -6 21 -12 26 -23 39 -33 112 -81 40 -26 77
-47 83 -47 5 0 10 -4 10 -10 0 -5 6 -10 14 -10 8 0 16 -4 18 -8 10 -24 495
-242 539 -242 4 0 20 -5 36 -12 15 -6 33 -12 38 -13 6 -2 39 -11 75 -20 36 -9
74 -19 85 -21 32 -6 56 -12 110 -24 28 -6 70 -14 95 -16 25 -3 56 -7 70 -10
126 -26 579 -25 730 1 14 2 45 7 70 10 25 4 64 11 88 16 23 5 59 12 80 15 20
3 45 10 54 15 9 5 21 8 25 7 6 -2 87 19 138 36 6 2 12 4 15 4 21 5 213 77 272
103 80 35 290 140 298 150 3 3 16 12 30 19 14 7 65 40 113 72 49 32 93 58 98
58 10 0 62 -34 86 -57 7 -6 26 -17 43 -25 16 -7 30 -16 30 -20 0 -5 5 -8 12
-8 6 0 19 -6 27 -14 17 -16 254 -138 336 -173 165 -72 489 -169 625 -187 19
-2 35 -5 35 -6 0 -1 14 -4 30 -6 17 -2 46 -6 65 -9 182 -26 618 -27 756 -1 10
2 39 7 64 11 25 3 59 9 75 11 129 21 454 113 528 151 16 8 36 16 45 18 21 4
247 113 327 158 440 246 841 650 1076 1084 60 110 112 218 112 230 0 7 4 13 9
13 4 0 8 8 8 18 0 10 5 23 11 29 6 6 12 17 13 24 4 17 15 48 27 74 6 12 12 30
13 40 2 11 8 19 12 18 5 -1 10 14 11 34 1 19 7 40 13 48 6 7 10 17 9 21 -1 5
0 12 1 17 1 4 4 12 5 17 1 6 3 11 4 13 2 1 5 13 7 27 3 14 8 26 13 28 5 2 6
12 3 24 -3 14 -1 19 6 14 8 -5 10 -2 6 8 -7 18 14 115 29 134 6 8 6 12 -2 12
-7 0 -10 4 -7 8 3 5 27 9 55 9 42 1 49 -1 45 -15 -3 -9 2 -6 10 8 8 14 15 21
16 15 0 -11 85 -14 95 -3 4 4 15 3 25 -2 10 -5 19 -7 22 -5 5 5 54 6 161 3 48
-2 87 1 87 5 0 4 8 4 18 -1 9 -5 31 -6 47 -2 17 3 42 3 56 -1 15 -4 32 -3 39
1 6 4 27 4 45 0 18 -4 39 -4 45 0 7 4 26 4 41 0 16 -5 31 -5 34 0 3 5 18 5 33
2 15 -4 41 -6 57 -5 17 2 51 3 78 3 26 0 55 0 65 0 9 0 28 0 42 -1 42 -2 74
-1 103 2 l27 3 0 436 0 436 -37 2 c-20 2 -40 5 -45 8 -4 3 -8 2 -8 -3 0 -8
-93 -8 -116 1 -7 3 -16 1 -19 -5 -4 -5 -10 -7 -15 -4 -12 8 -128 10 -135 3 -3
-3 -23 -2 -45 2 -22 4 -40 5 -40 1 0 -3 -21 -5 -47 -3 -27 2 -61 2 -78 1 -16
0 -34 -1 -40 -1 -12 1 -213 2 -235 1 -8 0 -27 2 -42 4 -14 2 -32 1 -38 -3 -7
-4 -27 -4 -45 0 -18 4 -40 3 -49 -2 -9 -5 -16 -5 -16 0 0 4 -21 7 -46 5 -35
-3 -44 -1 -38 9 4 7 -2 5 -13 -5 -13 -12 -22 -14 -25 -7 -2 8 -11 8 -32 0
l-28 -10 4 39 c2 22 0 37 -4 35 -5 -3 -8 1 -9 8 0 7 -2 22 -5 33 -2 11 -6 31
-8 45 -2 14 -6 32 -9 40 -4 8 -8 26 -9 40 -2 14 -7 31 -11 38 -5 6 -6 12 -3
12 3 0 -1 18 -9 40 -8 22 -14 41 -13 43 1 2 -20 72 -29 97 -3 8 -7 20 -8 25
-4 18 -87 229 -99 250 -5 11 -11 22 -11 25 -1 5 -66 133 -101 200 -11 19 -22
37 -26 38 -5 2 -8 8 -8 13 0 14 -131 208 -197 294 -132 169 -331 369 -488 488
-5 4 -21 17 -35 28 -22 18 -238 162 -295 196 -86 51 -395 198 -395 187 0 -3
-12 2 -27 10 -33 16 -118 46 -152 52 -14 3 -29 8 -35 12 -6 3 -15 7 -21 8 -5
1 -55 13 -110 28 -55 14 -113 27 -130 30 -16 2 -30 5 -30 6 0 2 -30 7 -80 14
-22 3 -53 8 -70 10 -124 20 -517 28 -664 13 -244 -24 -520 -89 -753 -178 -138
-52 -396 -184 -518 -264 -63 -41 -118 -75 -123 -75 -11 0 -101 61 -105 72 -2
4 -7 8 -12 8 -5 0 -44 22 -87 48 -153 94 -345 184 -513 242 -52 17 -102 35
-110 38 -8 3 -19 7 -25 8 -5 1 -12 3 -15 4 -3 1 -12 3 -20 5 -8 2 -42 10 -75
19 -137 34 -142 35 -185 41 -19 3 -46 7 -59 10 -14 2 -45 7 -70 10 -25 3 -62
8 -81 11 -36 6 -486 15 -492 9z"/>
<path d="M10150 5180 c8 -5 20 -10 25 -10 6 0 3 5 -5 10 -8 5 -19 10 -25 10
-5 0 -3 -5 5 -10z"/>
<path d="M1202 5156 c7 -8 15 -12 17 -11 5 6 -10 25 -20 25 -5 0 -4 -6 3 -14z"/>
<path d="M1150 5136 c7 -7 13 -7 20 0 6 6 3 10 -10 10 -13 0 -16 -4 -10 -10z"/>
<path d="M10157 5137 c4 -7 -1 -8 -13 -3 -15 6 -17 5 -6 -5 10 -11 15 -10 28
2 13 14 13 16 0 16 -8 0 -12 -5 -9 -10z"/>
<path d="M1190 5124 c0 -2 9 -8 20 -14 15 -8 18 -8 14 3 -4 11 -34 21 -34 11z"/>
<path d="M959 5093 c-13 -16 -12 -17 4 -4 9 7 17 15 17 17 0 8 -8 3 -21 -13z"/>
<path d="M1135 5100 c3 -5 8 -10 11 -10 2 0 4 5 4 10 0 6 -5 10 -11 10 -5 0
-7 -4 -4 -10z"/>
<path d="M10140 5106 c0 -2 8 -10 18 -17 15 -13 16 -12 3 4 -13 16 -21 21 -21
13z"/>
<path d="M10105 5080 c-3 -6 1 -7 9 -4 18 7 21 14 7 14 -6 0 -13 -4 -16 -10z"/>
<path d="M10230 5079 c0 -5 5 -7 10 -4 6 3 10 8 10 11 0 2 -4 4 -10 4 -5 0
-10 -5 -10 -11z"/>
<path d="M1196 5042 c-3 -5 1 -9 9 -9 8 0 12 4 9 9 -3 4 -7 8 -9 8 -2 0 -6 -4
-9 -8z"/>
</g>
</svg>
