<svg id="Component_8" data-name="Component 8" xmlns="http://www.w3.org/2000/svg" width="20.131" height="28.099" viewBox="0 0 20.131 28.099">
  <defs>
    <mask id="stemmask">
      <g transform="translate(0 -7.3)">
        <rect id="dummy_rect" width="20.131" height="28.099" fill="#fff"/>
        <line id="Line_7" data-name="Line 7" y2="10.411" transform="translate(11.8 17.688)" fill="none" stroke="#000" stroke-width="3"/>
        <line id="Line_8" data-name="Line 8" y2="10.411" transform="translate(8.33 17.688)" fill="none" stroke="#000" stroke-width="3"/>
      </g>
    </mask>
  </defs>
  
  <g id="Path_199" data-name="Path 199" transform="translate(0 7.3)" fill="none" mask="url(#stemmask)">
    <path d="M 10.06526851654053 16.77329254150391 C 5.342358589172363 16.77329254150391 1.499998569488525 12.93093299865723 1.499998569488525 8.208023071289063 C 1.499998569488525 7.107623100280762 2.109428405761719 4.490073204040527 6.190958499908447 -0.6769770383834839 C 7.645030975341797 -2.517770290374756 9.114010810852051 -4.1353440284729 10.06526851654053 -5.143523693084717 C 11.01648807525635 -4.135384559631348 12.48550605773926 -2.517770290374756 13.93957805633545 -0.6769770383834839 C 18.02110862731934 4.490073204040527 18.63053894042969 7.107623100280762 18.63053894042969 8.208023071289063 C 18.63053894042969 12.93093299865723 14.78817844390869 16.77329254150391 10.06526851654053 16.77329254150391 Z" fill="#fff" stroke="none"/>
    <path d="M 10.06526851654053 -2.931148529052734 C 9.256406784057617 -2.034121513366699 8.299110412597656 -0.9272127151489258 7.350038528442383 0.2756032943725586 C 3.313688278198242 5.39110279083252 2.999998092651367 7.640462875366211 2.999998092651367 8.208023071289063 C 2.999998092651367 12.10382270812988 6.169468879699707 15.27329254150391 10.06526851654053 15.27329254150391 C 13.96106910705566 15.27329254150391 17.13053894042969 12.10382270812988 17.13053894042969 8.208023071289063 C 17.13053894042969 7.640462875366211 16.81684875488281 5.39110279083252 12.78049850463867 0.2756032943725586 C 11.8314266204834 -0.9272127151489258 10.87413024902344 -2.034121513366699 10.06526851654053 -2.931148529052734 M 10.06526851654053 -7.299806594848633 C 10.06526851654053 -7.299806594848633 20.13053894042969 2.649123191833496 20.13053894042969 8.208023071289063 C 20.13053894042969 13.76691246032715 15.62415885925293 18.27329254150391 10.06526851654053 18.27329254150391 C 4.506378173828125 18.27329254150391 -1.9073486328125e-06 13.76691246032715 -1.9073486328125e-06 8.208023071289063 C -1.9073486328125e-06 2.649123191833496 10.06526851654053 -7.299806594848633 10.06526851654053 -7.299806594848633 Z" stroke="none" fill="#707070"/>
  </g>

  <line id="Line_7" data-name="Line 7" y2="10.411" transform="translate(7.565 17.688)" fill="none" stroke="#fff" stroke-width="2"/>
  <line id="Line_8" data-name="Line 8" y2="10.411" transform="translate(12.565 17.688)" fill="none" stroke="#fff" stroke-width="2"/>
  <line id="Line_6" data-name="Line 6" y2="10.411" transform="translate(10.065 17.688)" fill="none" stroke="#707070" stroke-width="3"/>
  

</svg>
