<svg id="Component_4_2" data-name="Component 4 – 2" xmlns="http://www.w3.org/2000/svg" width="23" height="27.381" viewBox="0 0 23 27.381">
  <g transform="translate(0,-2)">
    <g id="Path_200" data-name="Path 200" transform="translate(1.569 17.576)" fill="#fff">
      <path d="M 18.05026054382324 8.305134773254395 L 1.559999346733093 8.305134773254395 C 1.725759387016296 6.353813171386719 2.236217021942139 4.880785942077637 3.107049942016602 3.827835083007813 C 4.402510166168213 2.261445045471191 6.593470096588135 1.500005006790161 9.805130004882813 1.500005006790161 C 13.01679039001465 1.500005006790161 15.20775032043457 2.261445045471191 16.50321006774902 3.827835083007813 C 17.37404251098633 4.880785942077637 17.88450050354004 6.353813171386719 18.05026054382324 8.305134773254395 Z" stroke="none"/>
      <path d="M 9.805130004882813 2.999995231628418 C 8.282859802246094 2.999995231628418 7.013070106506348 3.191784858703613 6.03102970123291 3.570044994354248 C 5.276359558105469 3.860724925994873 4.698019981384277 4.257744789123535 4.26294994354248 4.78379487991333 C 3.836836814880371 5.299022674560547 3.520513534545898 5.968876838684082 3.311016082763672 6.80512523651123 L 16.29924392700195 6.80512523651123 C 16.08974647521973 5.968876838684082 15.77342319488525 5.299022674560547 15.34731006622314 4.78379487991333 C 14.91224002838135 4.257744789123535 14.33390045166016 3.860724925994873 13.5792293548584 3.570044994354248 C 12.59718990325928 3.191784858703613 11.32740020751953 2.999995231628418 9.805130004882813 2.999995231628418 M 9.805130004882813 -4.76837158203125e-06 C 17.67559051513672 -4.76837158203125e-06 19.61026000976563 4.389904975891113 19.61026000976563 9.80512523651123 C 12.25481986999512 9.80512523651123 6.66825008392334 9.80512523651123 0 9.80512523651123 C 0 4.389904975891113 1.934669494628906 -4.76837158203125e-06 9.805130004882813 -4.76837158203125e-06 Z" stroke="none" fill="#7898D6"/>
    </g>
    <ellipse id="Ellipse_31" data-name="Ellipse 31" cx="11.5" cy="12" rx="11.5" ry="12" fill="#fff"/>
    <g id="Ellipse_30" data-name="Ellipse 30" transform="translate(2 3)" fill="#fff" stroke="#7898D6" stroke-width="3">
      <circle cx="9.5" cy="9.5" r="9.5" stroke="none"/>
      <circle cx="9.5" cy="9.5" r="8" fill="none"/>
    </g>
  </g>
</svg>
