<svg id="Component_20" data-name="Component 20" xmlns="http://www.w3.org/2000/svg" width="20" height="16" viewBox="0 0 20 16">
  <defs>
    <clipPath id="largeclip">
      <path id="Rectangle_542" data-name="Rectangle 542" d="M0,0H20a0,0,0,0,1,0,0V4a3,3,0,0,1-3,3H3A3,3,0,0,1,0,4V0A0,0,0,0,1,0,0Z" transform="translate(0 9)" fill="#ffffff"/>
      <ellipse id="Ellipse_303" data-name="Ellipse 303" cx="1.5" cy="4" rx="1.5" ry="4" transform="translate(8 7)" fill="#ffffff"/>
      <ellipse id="Ellipse_311" data-name="Ellipse 311" cx="2.5" cy="4" rx="2.5" ry="4" transform="translate(3 5)" fill="#ffffff"/>
      <ellipse id="Ellipse_322" data-name="Ellipse 322" cx="3" cy="4" rx="3" ry="4" transform="translate(7 3)" fill="#ffffff"/>
      <ellipse id="Ellipse_323" data-name="Ellipse 323" cx="3" cy="4" rx="3" ry="4" transform="translate(12)" fill="#ffffff"/>
      <rect id="Rectangle_544" data-name="Rectangle 544" width="6" height="7" transform="translate(12 4)" fill="#ffffff"/>
      <rect id="Rectangle_545" data-name="Rectangle 545" width="12" height="3" transform="translate(3 8)" fill="#ffffff"/>
    </clipPath>
    <clipPath id="smallclip">
      <path id="Rectangle_542" data-name="Rectangle 542" d="M1,0H18a0,0,0,0,1,0,0V2a3,3,0,0,1-3,3H3A3,3,0,0,1,0,4V0A0,0,0,0,1,0,0Z" transform="translate(1 10)" fill="#ffffff"/>

<ellipse id="Ellipse_303" data-name="Ellipse 303" cx="1.5" cy="4" rx="1.5" ry="4" transform="translate(8 7)" fill="#ffffff"/>
      <ellipse id="Ellipse_311" data-name="Ellipse 311" cx="2.5" cy="4.5" rx="2" ry="3.5" transform="translate(3 5)" fill="#ffffff"/>
      <ellipse id="Ellipse_322" data-name="Ellipse 322" cx="3" cy="4.5" rx="2" ry="3.5" transform="translate(7 3)" fill="#ffffff"/>

      <ellipse id="Ellipse_323" data-name="Ellipse 323" cx="3" cy="4.5" rx="2" ry="3.5" transform="translate(12)" fill="#ffffff"/>
      <rect id="Rectangle_544" data-name="Rectangle 544" width="4" height="7" transform="translate(13 4)" fill="#ffffff"/>
      <rect id="Rectangle_545" data-name="Rectangle 545" width="10" height="3" transform="translate(5 8)" fill="#ffffff"/>
    </clipPath>
  </defs>
  <rect x="0" y="0" width="20" height="16" clip-path="url(#largeclip)" id="outline" fill="#707070"></rect>
  <rect x="0" y="0" width="20" height="16" clip-path="url(#smallclip)" fill="#ffffff" ></rect>
</svg>
